<?xml version="1.0" standalone="no"?>
<!DOCTYPE svg PUBLIC "-//W3C//DTD SVG 20010904//EN"
 "http://www.w3.org/TR/2001/REC-SVG-20010904/DTD/svg10.dtd">
<svg version="1.0" xmlns="http://www.w3.org/2000/svg"
 width="397.000000pt" height="397.000000pt" viewBox="0 0 397.000000 397.000000"
 preserveAspectRatio="xMidYMid meet">
<metadata>
Created by potrace 1.14, written by Peter Selinger 2001-2017
</metadata>
<g transform="translate(0.000000,397.000000) scale(0.100000,-0.100000)"
fill="#000000" stroke="none">
<path d="M1845 3608 c-44 -3 -89 -9 -100 -11 -11 -3 -40 -8 -65 -12 -25 -5
-52 -10 -60 -11 -8 -2 -44 -10 -80 -19 -36 -9 -77 -19 -92 -22 -16 -3 -28 -8
-28 -12 0 -4 -8 -7 -19 -8 -17 -1 -46 -13 -157 -64 -22 -11 -45 -19 -51 -19
-6 0 -13 -3 -15 -7 -1 -5 -24 -19 -50 -32 -27 -13 -48 -28 -48 -33 0 -5 -4 -6
-10 -3 -5 3 -10 2 -10 -3 0 -5 -13 -15 -30 -22 -16 -7 -30 -16 -30 -21 0 -4
-8 -10 -18 -13 -10 -4 -33 -19 -50 -34 -17 -15 -43 -36 -58 -47 -43 -31 -205
-196 -244 -249 -19 -26 -40 -53 -47 -60 -16 -18 -76 -113 -109 -172 -15 -27
-35 -64 -46 -82 -10 -17 -18 -34 -18 -37 -1 -2 -9 -24 -19 -47 -22 -53 -29
-71 -27 -79 0 -3 -5 -13 -12 -22 -8 -9 -11 -21 -7 -27 3 -5 -1 -10 -9 -10 -15
0 -38 -32 -34 -47 1 -4 -3 -30 -10 -58 -29 -124 -37 -205 -36 -395 0 -190 4
-228 38 -390 19 -87 47 -178 83 -270 29 -74 126 -272 142 -292 6 -7 30 -42 53
-78 23 -36 45 -67 48 -70 3 -3 23 -27 44 -55 67 -86 276 -285 298 -285 12 0
49 -18 84 -40 35 -22 68 -40 73 -40 5 0 11 -4 13 -8 5 -13 202 -106 248 -117
8 -2 35 -12 60 -21 25 -9 52 -17 60 -19 8 -2 43 -10 77 -19 34 -9 81 -19 105
-21 24 -3 68 -9 98 -14 66 -11 340 -11 390 0 19 4 53 10 75 13 82 10 226 45
241 57 7 5 16 9 20 8 10 -2 23 2 124 44 86 36 177 83 203 105 9 8 17 12 17 8
0 -5 62 31 95 57 140 106 331 277 310 277 -3 0 4 10 17 23 40 38 113 131 98
123 -8 -4 -4 2 10 13 14 11 21 21 15 21 -7 0 -7 3 0 8 14 10 54 68 57 84 2 7
9 19 16 26 6 7 12 20 12 28 0 8 4 14 8 14 7 0 34 52 47 90 0 3 9 23 19 45 24
53 64 166 70 196 2 13 7 31 10 39 3 8 8 27 11 43 3 15 7 38 10 52 25 125 30
176 29 325 0 80 -3 165 -7 190 -3 25 -9 65 -12 89 -3 25 -10 63 -16 85 -5 23
-12 52 -15 66 -5 28 -22 87 -31 110 -4 8 -7 17 -7 20 -4 19 -74 184 -94 220
-108 196 -182 298 -315 432 -104 104 -124 122 -199 174 -29 21 -54 41 -56 46
-2 4 -8 8 -14 8 -5 0 -22 8 -36 19 -30 21 -94 58 -132 76 -97 47 -114 54 -122
49 -4 -3 -8 -1 -8 4 0 13 -250 92 -305 97 -5 1 -30 5 -55 10 -56 10 -55 10
-164 20 -122 11 -158 11 -251 3z"/>
</g>
</svg>
